<?xml version="1.0" encoding="UTF-8" standalone="no"?>
<!-- Created with Inkscape (http://www.inkscape.org/) -->

<svg
   width="260"
   height="170"
   viewBox="41 99.5 129 85"
   version="1.1"
   id="svg5"
   xml:space="preserve"
   inkscape:version="1.2.2 (b0a8486, 2022-12-01)"
   sodipodi:docname="LOGO_brdrless.svg"
   inkscape:export-filename="brdlessv2LOGO100OPAC.svg"
   inkscape:export-xdpi="96"
   inkscape:export-ydpi="96"
   xmlns:inkscape="http://www.inkscape.org/namespaces/inkscape"
   xmlns:sodipodi="http://sodipodi.sourceforge.net/DTD/sodipodi-0.dtd"
   xmlns="http://www.w3.org/2000/svg"
   xmlns:svg="http://www.w3.org/2000/svg"><sodipodi:namedview
     id="namedview7"
     pagecolor="#ffffff"
     bordercolor="#000000"
     borderopacity="0.25"
     inkscape:showpageshadow="2"
     inkscape:pageopacity="0.0"
     inkscape:pagecheckerboard="true"
     inkscape:deskcolor="#d1d1d1"
     inkscape:document-units="mm"
     showgrid="false"
     inkscape:zoom="0.74060048"
     inkscape:cx="380.7721"
     inkscape:cy="625.16837"
     inkscape:window-width="1309"
     inkscape:window-height="914"
     inkscape:window-x="0"
     inkscape:window-y="0"
     inkscape:window-maximized="0"
     inkscape:current-layer="g207" /><defs
     id="defs2" /><g
     inkscape:label="Layer 1"
     inkscape:groupmode="layer"
     id="layer1"><g
       id="g207"
       transform="matrix(0.67756964,0,0,0.70812019,5.377466,42.774985)"><path
         fill-rule="nonzero"
         fill="#fbfafb"
         fill-opacity="1"
         d="m 77.53125,187.38281 h -3.839844 v 3.6836 h 3.839844 c 1.148438,0 1.96875,-0.59375 1.96875,-1.78907 0,-1.16797 -0.820312,-1.89453 -1.96875,-1.89453"
         id="path216"
         style="opacity:0.01846154" /><path
         fill-rule="nonzero"
         fill="#fbfafb"
         fill-opacity="1"
         d="m 132.73437,187.3125 h -0.50781 l -1.9414,4.70312 h 4.30468 z m 0,0"
         id="path218"
         style="opacity:0" /><path
         fill-rule="nonzero"
         fill="#fbfafb"
         fill-opacity="1"
         d="m 138.61719,98.898438 c -1.72266,-1.375 -3.67578,-2.410157 -5.875,-3.082032 -2.19922,-0.671875 -4.50391,-1.007812 -6.91797,-1.007812 H 80.773438 l -2.871094,18.820316 c 1.683594,-1.35157 3.4375,-2.29297 5.265625,-2.85157 1.832031,-0.53906 3.804687,-0.82031 5.921875,-0.82031 4.027344,0 7.707031,0.78516 11.035156,2.36328 3.33594,1.57813 6.16406,3.75 8.50781,6.50782 2.34375,2.75781 4.17188,5.99218 5.49219,9.69921 0.0273,0.0781 0.0508,0.16016 0.0781,0.23828 h 7.34375 c 2.63671,0 5.30078,-0.23828 8.01562,-0.71484 2.70703,-0.46875 5.13281,-1.35547 7.29297,-2.65625 2.16406,-1.30859 3.91406,-3.07031 5.26953,-5.32031 1.35547,-2.25781 2.03125,-5.14844 2.03125,-8.70703 0,-2.82813 -0.48828,-5.27735 -1.48047,-7.32422 -0.98828,-2.05469 -2.35156,-3.76953 -4.05859,-5.144532"
         id="path220"
         style="opacity:0" /><path
         fill-rule="nonzero"
         fill-opacity="1"
         d="m 141.59235,120.07422 c -1.43843,2.25 -3.29552,4.01172 -5.59203,5.32031 -2.29236,1.30078 -4.86659,2.1875 -7.7393,2.65625 -2.88098,0.47656 -5.70809,0.71484 -8.50618,0.71484 h -7.79318 c -0.0291,-0.0781 -0.0539,-0.16015 -0.0829,-0.23828 -1.40111,-3.70703 -3.34112,-6.9414 -5.82831,-9.69922 -2.48719,-2.75781 -5.48839,-4.92968 -9.028481,-6.50781 -3.531809,-1.57812 -7.436693,-2.36328 -11.710509,-2.36328 -2.24676,0 -4.340142,0.28125 -6.284293,0.82031 -1.940006,0.5586 -3.801251,1.5 -5.58788,2.85157 l 3.042617,-18.820316 h 47.812026 c 2.56181,0 5.00754,0.335937 7.34135,1.007812 2.3338,0.671875 4.40646,1.707032 6.23455,3.082032 1.8115,1.375002 3.25821,3.089842 4.30698,5.148432 1.0529,2.04688 1.57107,4.49219 1.57107,7.32032 0,3.55859 -0.71714,6.44922 -2.15556,8.70703 m 84.1208,7.6289 h -39.2561 v 11.23829 h 31.45049 l -13.74586,20.34765 c -2.48719,0.63281 -5.00339,0.95313 -7.56934,0.95313 -4.35257,0 -8.42741,-0.90235 -12.23282,-2.67188 -3.81368,-1.76953 -7.12578,-4.16015 -9.95703,-7.16015 -2.83954,-2.99219 -5.06557,-6.46485 -6.70298,-10.39844 -1.63324,-3.95313 -2.44158,-8.05078 -2.44158,-12.3086 0,-4.41015 0.78761,-8.64062 2.38355,-12.66406 1.59595,-4.02344 3.78468,-7.57422 6.57861,-10.64062 2.80224,-3.08203 6.08118,-5.527346 9.84513,-7.347659 3.76393,-1.796875 7.86779,-2.714843 12.29084,-2.714843 4.89147,0 9.18187,1.070312 12.87534,3.203124 3.68518,2.125 7.08019,4.957028 10.19747,8.511718 h 14.32619 c -1.86954,-3.55469 -4.14531,-6.73828 -6.81904,-9.589842 -2.68616,-2.835938 -5.65006,-5.261719 -8.91657,-7.277344 -3.26235,-2 -6.77343,-3.539063 -10.53737,-4.597656 -3.76809,-1.070313 -7.63153,-1.601563 -11.58615,-1.601563 -6.06045,0 -11.71051,1.183594 -16.95018,3.542969 -5.24797,2.367187 -9.79122,5.566406 -13.63393,9.582031 -3.71006,3.886719 -6.6325,8.441405 -8.78806,13.640625 -0.15338,-3.29688 -0.77518,-6.54297 -1.88197,-9.73047 -1.2809,-3.710936 -3.27894,-6.902342 -5.99827,-9.585936 C 145.45577,87.277344 141.8079,85.25 137.6999,84.335938 133.57532,83.4375 129.38026,82.984375 125.11059,82.984375 H 68.945757 v 0.117187 h -2.383554 l -7.105065,44.601558 10.367426,2.48047 c 3.647874,-5.98828 8.812932,-8.98828 15.486885,-8.98828 2.644708,0 5.019971,0.58985 7.113355,1.76563 2.093381,1.1875 3.838555,2.7539 5.23967,4.67578 1.396971,1.9375 2.462316,4.12109 3.204336,6.57812 0.73371,2.44141 1.10679,4.88672 1.10679,7.33203 0,2.4375 -0.43111,4.8086 -1.28505,7.09375 -0.858076,2.28125 -2.035343,4.31641 -3.548387,6.08594 -1.517179,1.77344 -3.324535,3.19141 -5.417919,4.25781 -2.097527,1.07813 -4.389884,1.60547 -6.872926,1.60547 -2.487186,0 -4.684201,-0.45312 -6.5869,-1.36328 -1.898553,-0.91015 -3.569113,-2.14062 -5.003391,-3.66797 -1.438424,-1.54297 -2.623983,-3.30859 -3.552532,-5.32031 -0.932696,-2.01953 -1.629108,-4.16016 -2.093383,-6.44922 H 55.61858 c 0.381369,4.02344 1.351371,7.7461 2.905863,11.17578 1.554492,3.44141 3.589841,6.39453 6.118481,8.875 2.520349,2.48047 5.471811,4.42188 8.846096,5.79688 3.382574,1.38672 7.129935,2.0664 11.24623,2.0664 4.273816,0 8.191136,-0.82812 11.760254,-2.48046 3.577406,-1.64063 6.657366,-3.90625 9.264766,-6.73829 2.59911,-2.85156 4.62202,-6.16796 6.0563,-9.94531 1.43842,-3.77344 2.15556,-7.79687 2.15556,-12.0625 0,-3.28515 -0.42282,-6.40625 -1.25188,-9.36328 l 27.30517,40.58984 h 15.9553 l -24.57755,-32.99218 c 1.55449,0 3.04265,-0.16016 4.48522,-0.48828 1.43429,-0.30469 2.81053,-0.69922 4.13703,-1.17969 5.7454,-2.12891 9.94046,-5.42578 12.57273,-9.875 0.15337,-0.25781 0.29846,-0.51563 0.43941,-0.77735 -0.008,0.4375 -0.0166,0.8711 -0.0166,1.3125 0,6.07422 1.11094,11.76563 3.32454,17.08985 2.2136,5.32812 5.24382,9.96875 9.07823,13.96094 3.84271,3.98437 8.39011,7.13281 13.63393,9.46484 5.24382,2.32812 10.85243,3.48437 16.83826,3.48437 h 0.23213 c 2.86856,0 5.7081,-0.29687 8.49375,-0.8789 2.7898,-0.58985 5.52155,-1.44141 8.15383,-2.53906 l 26.91551,-40.58204 z m 0,0"
         id="path1123"
         fill="#961635"
         style="fill:#f01414;fill-opacity:0.96969694;stroke-width:1.03014" /><path
         fill-rule="nonzero"
         fill="#231f20"
         fill-opacity="1"
         d="m 77.53125,191.06641 h -3.839844 v -3.6875 h 3.839844 c 1.148438,0 1.96875,0.73046 1.96875,1.89843 0,1.19532 -0.820312,1.78907 -1.96875,1.78907 m 5.234375,-1.78907 c 0,-2.89062 -2.164063,-4.85547 -5.101563,-4.85547 h -7.21875 v 12.20704 h 3.246094 v -2.60157 h 3.796875 l 1.390625,2.60157 h 3.535156 l -1.855468,-3.33204 c 1.367187,-0.8164 2.207031,-2.20703 2.207031,-4.01953"
         id="path226" /><path
         fill-rule="nonzero"
         fill="#231f20"
         fill-opacity="1"
         d="m 109.36328,187.35937 v -2.9375 H 98.125 v 12.20704 h 11.52344 v -3 h -8.27735 v -1.72266 h 7.17579 v -2.9375 h -7.17579 v -1.60938 z m 0,0"
         id="path228" /><path
         fill-rule="nonzero"
         fill="#231f20"
         fill-opacity="1"
         d="m 132.22656,187.3125 h 0.50781 l 1.85547,4.70312 h -4.30468 z m 3.6211,7.53125 0.77343,1.78516 h 3.44532 l -5.1875,-12.20704 h -4.72657 l -5.30078,12.20704 h 3.48828 l 0.75391,-1.78516 z m 0,0"
         id="path230" /><path
         fill-rule="nonzero"
         fill="#231f20"
         fill-opacity="1"
         d="m 155.40234,184.42187 v 12.21094 h 11.30469 v -2.9375 h -8.05859 v -9.27344 z m 0,0"
         id="path232" /><path
         fill-rule="nonzero"
         fill="#231f20"
         fill-opacity="1"
         d="m 187.45312,196.63281 v -9.29687 h 4.7461 v -2.91407 H 179.4375 v 2.91407 h 4.74609 v 9.29687 z m 0,0"
         id="path234" /><path
         fill-rule="nonzero"
         fill="#231f20"
         fill-opacity="1"
         d="m 214.60156,190.53516 h -0.0898 l -3.55469,-6.11329 h -3.73047 l 5.62891,9.16407 v 3.04687 h 3.20312 v -3.04687 l 5.67188,-9.16407 H 218 Z m 0,0"
         id="path236" /></g></g></svg>
